<svg xmlns="http://www.w3.org/2000/svg" width="940" height="539" viewBox="0 0 940 539">
  <g id="Group_44" data-name="Group 44" transform="translate(-187.492 -769)">
    <g id="Ellipse_32" data-name="Ellipse 32" transform="translate(927.492 929)" fill="none" stroke="#fef95c" stroke-width="3">
      <circle cx="25.5" cy="25.5" r="25.5" stroke="none"/>
      <circle cx="25.5" cy="25.5" r="24" fill="none"/>
    </g>
    <circle id="Ellipse_34" data-name="Ellipse 34" cx="47.5" cy="47.5" r="47.5" transform="translate(312.492 769)" fill="#00f8d2"/>
    <g id="Ellipse_35" data-name="Ellipse 35" transform="translate(284.492 1113)" fill="none" stroke="#512fef" stroke-width="2">
      <ellipse cx="41" cy="40" rx="41" ry="40" stroke="none"/>
      <ellipse cx="41" cy="40" rx="40" ry="39" fill="none"/>
    </g>
    <g id="Ellipse_36" data-name="Ellipse 36" transform="translate(617.492 970)" fill="none" stroke="#d4d2d8" stroke-width="2">
      <ellipse cx="40.5" cy="40" rx="40.5" ry="40" stroke="none"/>
      <ellipse cx="40.5" cy="40" rx="39.5" ry="39" fill="none"/>
    </g>
    <circle id="Ellipse_37" data-name="Ellipse 37" cx="24.5" cy="24.5" r="24.5" transform="translate(811.492 1040)" fill="#d4d2d8"/>
    <ellipse id="Ellipse_39" data-name="Ellipse 39" cx="24.5" cy="23.5" rx="24.5" ry="23.5" transform="translate(226.492 1216)" fill="#d4d2d8"/>
    <g id="Ellipse_42" data-name="Ellipse 42" transform="translate(1035.492 804)" fill="none" stroke="#75f4d3" stroke-width="2">
      <ellipse cx="33" cy="33.5" rx="33" ry="33.5" stroke="none"/>
      <ellipse cx="33" cy="33.5" rx="32" ry="32.5" fill="none"/>
    </g>
    <ellipse id="Ellipse_43" data-name="Ellipse 43" cx="29.5" cy="29" rx="29.5" ry="29" transform="translate(1068.492 1061)" fill="#00f8d2"/>
    <circle id="Ellipse_44" data-name="Ellipse 44" cx="22.5" cy="22.5" r="22.5" transform="translate(1035.492 1263)" fill="#fffa29"/>
    <ellipse id="Ellipse_46" data-name="Ellipse 46" cx="37" cy="37.5" rx="37" ry="37.5" transform="translate(491.493 1180)" fill="#adebff"/>
    <g id="Ellipse_47" data-name="Ellipse 47" transform="translate(372.492 971)" fill="none" stroke="#9a7ff6" stroke-width="2">
      <ellipse cx="41.5" cy="40" rx="41.5" ry="40" stroke="none"/>
      <ellipse cx="41.5" cy="40" rx="40.5" ry="39" fill="none"/>
    </g>
    <ellipse id="Ellipse_48" data-name="Ellipse 48" cx="48.5" cy="49.5" rx="48.5" ry="49.5" transform="translate(187.492 912)" fill="#512fef"/>
    <g id="Ellipse_33" data-name="Ellipse 33" transform="translate(761.492 838)" fill="#f0ecfd" stroke="#707070" stroke-width="1">
      <ellipse cx="42" cy="41.5" rx="42" ry="41.5" stroke="none"/>
      <ellipse cx="42" cy="41.5" rx="41.5" ry="41" fill="none"/>
    </g>
  </g>
</svg>
